<?xml version="1.0" encoding="utf-8"?>
<!-- Generator: Adobe Illustrator 22.0.1, SVG Export Plug-In . SVG Version: 6.00 Build 0)  -->
<svg version="1.1" id="Capa_1" xmlns="http://www.w3.org/2000/svg" xmlns:xlink="http://www.w3.org/1999/xlink" x="0px" y="0px"
	 viewBox="0 0 54.7 78.6" style="enable-background:new 0 0 54.7 78.6;" xml:space="preserve">
<style type="text/css">
	.st0{fill:#CCAB3B;}
</style>
<g id="i7IpKK_2_">
	<g>
		<path class="st0" d="M0,78.6c0-3.1,0.8-6,2.1-8.7c1.3-2.7,3.1-5.1,5.4-7.1c3.6-3.3,7.8-5.4,12.5-6.5c0.3-0.1,0.4-0.2,0.4-0.5
			c0-0.7,0-1.5,0-2.2c0-0.1-0.1-0.3-0.2-0.4c-2.1-1.7-3.8-3.8-5.2-6.1c-1.3-2.2-2.3-4.5-2.9-7c-0.1-0.2-0.1-0.3-0.4-0.4
			c-0.5-0.2-0.9-0.6-1.3-1c-0.9-1.1-1.3-2.4-1.5-3.7c-0.2-1-0.2-2,0.1-3c0.2-0.7,0.5-1.4,1.3-1.6c0.3-0.1,0.6-0.1,0.9-0.1
			c0-0.1,0-0.2,0-0.3c0-0.8,0-1.6,0-2.5c0-3.1,0-6.3,0-9.4c0-0.8,0-1.6,0-2.4c0-0.7,0.3-1.2,0.8-1.5c0.9-0.6,2-1,3.1-1.3
			c2.5-0.7,5.1-1.2,7.7-1.3c1.7-0.1,3.4-0.2,5.1-0.2c1.9,0,3.8,0.3,5.7,0.6c2.1,0.4,4.3,0.8,6.3,1.5c0.9,0.3,1.7,0.7,2.5,1
			c0.4,0.2,0.7,0.5,0.6,1.1c0,2,0,3.9,0,5.9c0,1.2,0,2.3,0,3.5c0,0.6,0.2,1.3,0.2,1.9c0.1,1,0.1,2.1,0.2,3.1c0,0.1,0,0.1,0,0.2
			c1.2,0.1,1.7,0.8,1.9,1.9c0.4,2.4,0,4.7-1.6,6.7c-0.3,0.4-0.7,0.6-1.1,0.9c-0.1,0.1-0.2,0.3-0.2,0.4c-0.5,1.6-0.9,3.1-1.4,4.7
			c-0.6,1.8-1.5,3.5-2.6,5.1c-0.5,0.8-1.2,1.5-1.8,2.3c-0.1,0.1-0.2,0.2-0.2,0.3c0,1.4,0,2.7,0,4.1c0,0,0,0.1,0.1,0
			c1.5,0.6,3,1.2,4.4,1.9c2.9,1.4,5.5,3.3,7.7,5.7c2.5,2.6,4.2,5.7,5.2,9.2c0.5,1.7,0.8,3.4,0.8,5.2C36.5,78.6,18.2,78.6,0,78.6z
			 M16.4,27.5c0,0.1,0,0.1,0,0.2c-0.2,1.2-0.4,2.4-0.7,3.6c-0.3,1.2-0.9,2.2-1.8,3c-0.6,0.5-1.2,0.7-2,0.7c-0.3,0-0.4-0.1-0.4-0.4
			c0-0.8-0.1-1.6-0.1-2.4c0-0.3-0.2-0.6-0.4-0.8c-0.3-0.2-0.6-0.1-0.8,0.2c-0.1,0.3-0.2,0.5-0.3,0.8c-0.2,0.9-0.1,1.8,0.1,2.6
			c0.2,1.3,0.7,2.4,1.7,3.3c0.2,0.2,0.4,0.4,0.7,0.3c0.3-0.1,0.4,0.1,0.5,0.3c0.2,0.8,0.4,1.6,0.7,2.3c0.7,2.2,1.7,4.2,3,6.1
			c0.7,1.1,1.5,2,2.4,3c1.7,1.7,3.5,3.2,5.7,4.2c1.4,0.6,2.9,0.9,4.4,0.7c2.2-0.3,4.1-1.4,5.7-2.8c2-1.8,3.4-4,4.5-6.3
			c1-2.2,1.7-4.6,2.2-7c0.1-0.3,0.1-0.4,0.4-0.4c0.1,0,0.3-0.1,0.4-0.1c0.3-0.2,0.5-0.5,0.8-0.8c0.8-1,1.1-2.2,1.3-3.4
			c0.1-0.9,0.1-1.8-0.2-2.6c-0.1-0.3-0.3-0.5-0.6-0.4c-0.3,0.1-0.6,0.4-0.6,0.7c0,0.9,0,1.7,0,2.6c0,0.2-0.1,0.3-0.3,0.4
			c-0.5,0.1-0.9,0-1.3-0.3c-0.6-0.5-0.9-1.3-1-2c-0.2-0.9-0.3-1.8-0.6-2.7c-0.6-1.8-1.6-3.4-2.8-5c-0.4-0.6-0.8-1-1.6-1
			c-0.1,0-0.3,0-0.4,0.1c-1,0.8-2.1,1.5-3.2,2c-2.7,1.3-5.6,1.9-8.6,2C20.8,28.1,18.6,28,16.4,27.5z M21.4,54.3c0,1.1,0,2.1,0,3.1
			c0,0.1,0,0.2,0.1,0.2c1,1.8,2.2,3.3,4,4.3c1.2,0.7,2.4,1,3.8,0.8c1.4-0.2,2.5-0.9,3.6-1.8c1-0.8,1.7-1.9,2.4-2.9
			c0.1-0.1,0.1-0.3,0.1-0.4c0-1.1,0-2.2,0-3.3c0-0.3,0-0.5,0-0.8c-0.1,0.1-0.1,0.1-0.2,0.1c-0.1,0.1-0.2,0.1-0.2,0.2
			c-1.3,1.1-2.8,2-4.5,2.5c-1.1,0.3-2.3,0.5-3.5,0.3c-1.7-0.3-3.2-0.9-4.7-1.7C22,54.6,21.8,54.5,21.4,54.3z"/>
		<path class="st0" d="M50.5,12.3c-2.2,0.9-4.2,1.8-6.4,2.8c0-0.2,0-0.3,0-0.5c0.1-0.5-0.2-0.8-0.6-1c-0.8-0.4-1.5-0.7-2.3-1
			c-2.6-0.9-5.3-1.5-8-1.9c-2.1-0.3-4.3-0.6-6.5-0.6c-1.3,0-2.6,0-3.9,0.2c-1.9,0.2-3.8,0.5-5.7,0.8c-1.8,0.3-3.5,0.7-5.2,1.5
			c-0.5,0.2-1,0.5-1.4,0.8c-0.4,0.3-0.6,0.7-0.5,1.2c0,0.2,0,0.3,0,0.6c-2.1-0.9-4.2-1.8-6.4-2.8c0.7-0.3,1.4-0.5,2-0.7
			c2-0.7,4.1-1.4,6.1-2.1c3-1.1,6.1-2.1,9.1-3.2c2-0.7,3.9-1.4,5.9-2.1c0.2-0.1,0.5-0.1,0.7,0c4.1,1.4,8.1,2.8,12.1,4.3
			c3.5,1.2,7,2.5,10.5,3.7C50.2,12.2,50.3,12.3,50.5,12.3z"/>
		<path class="st0" d="M2.8,11.3c0-0.8,0-1.5,0-2.3c0-0.1,0.1-0.2,0.3-0.3c1-0.4,2.1-0.8,3.1-1.1C7.8,7,9.4,6.4,11,5.8
			c1.8-0.7,3.5-1.3,5.3-2c2.9-1.1,5.8-2.2,8.7-3.2c0.5-0.2,1.1-0.4,1.7-0.6c0,0.9,0,1.8,0,2.7c0,0.1-0.1,0.2-0.2,0.2
			c-1.2,0.4-2.4,0.8-3.6,1.3c-3.3,1.2-6.6,2.3-10,3.5c-2.8,1-5.6,2-8.4,3C3.9,10.9,3.4,11.1,2.8,11.3z"/>
		<path class="st0" d="M27.8,0c0.9,0.3,1.8,0.7,2.7,1c2.2,0.8,4.5,1.7,6.7,2.5c2.5,0.9,5.1,1.9,7.6,2.8c2.2,0.8,4.4,1.6,6.6,2.4
			c0.2,0.1,0.3,0.2,0.3,0.4c0,0.7,0,1.4,0,2.1c-0.1,0-0.2,0-0.3-0.1c-3.1-1.1-6.1-2.2-9.2-3.3c-4.7-1.6-9.3-3.3-14-4.9
			c-0.2-0.1-0.3-0.2-0.3-0.4C27.8,1.7,27.8,0.9,27.8,0z"/>
		<path class="st0" d="M46.5,27.1c0.3-1.7,0.6-3.3,0.9-4.9c0,0,0,0-0.1,0c-0.6,1.6-1.1,3.1-1.7,4.8c-0.4-0.1-0.7-0.3-1.1-0.4
			c0.8-2.2,1.6-4.4,2.5-6.7c0.2,0.8,0.7,1.3,1.5,1.3c0.7,0,1-0.4,1.4-1.3c0.8,2.2,1.6,4.4,2.4,6.6C50.5,27.3,48.5,27.5,46.5,27.1z"
			/>
		<path class="st0" d="M49.3,18.6c-0.7-0.2-0.7-0.4-1.7,0c0-1.4,0-2.8,0-4.2c0.5-0.2,1.1-0.5,1.7-0.7C49.3,15.3,49.3,17,49.3,18.6z"
			/>
		<path class="st0" d="M48.5,20.6c-0.5,0-0.9-0.4-0.9-0.9c0-0.5,0.4-0.8,0.9-0.9c0.5,0,0.9,0.3,0.9,0.9C49.4,20.3,49,20.6,48.5,20.6
			z"/>
	</g>
</g>
</svg>
