<?xml version="1.0" encoding="utf-8"?>
<!-- Generator: Adobe Illustrator 22.0.1, SVG Export Plug-In . SVG Version: 6.00 Build 0)  -->
<svg version="1.1" id="Capa_1" xmlns="http://www.w3.org/2000/svg" xmlns:xlink="http://www.w3.org/1999/xlink" x="0px" y="0px"
	 viewBox="0 0 66 81.9" style="enable-background:new 0 0 66 81.9;" xml:space="preserve">
<style type="text/css">
	.st0{fill:#CCAB3B;}
</style>
<g id="jVC32s_2_">
	<g>
		<g>
			<path class="st0" d="M35.5,75.3c0-0.3,0-0.7,0.1-1c0-2.1,0-4.3,0-6.4c0-2.3,1.3-3.7,3.7-3.7c2.6,0,5.3,0,7.9,0c0.3,0,0.7,0,1.2,0
				c0-0.5,0-1,0-1.4c0-9.5,0-19.1,0-28.6c0-0.8,0.2-1.3,0.8-1.8c1.3-1.3,2.6-2.6,4.1-4c0,0.5,0.1,0.8,0.1,1.1c0,12,0,23.9,0,35.9
				c0,1.4-0.5,2.4-1.4,3.3c-4,4-8,8-12,12c-0.8,0.8-1.7,1.2-2.9,1.2c-10.3,0-20.5,0-30.8,0c-3.7,0-6.1-2.4-6.1-6.1
				c0-5.3,0.1-10.6,0.1-15.9c0-14.1,0-28.2-0.1-42.2c0-3.2,2.3-6.3,6.2-6.2c9.6,0.1,19.2,0,28.8,0c1.3,0,2.6,0,3.9,0
				c0,0.1,0.1,0.2,0.1,0.2c-2,2-4,4-6,5.9c-0.2,0.2-0.7,0.3-1,0.3c-7.2,0-14.4,0-21.6,0c-3.5,0-5.4,1.9-5.4,5.4c0,7.1,0,14.3,0,21.4
				c0,6,0,12.1,0,18.1c0,2.6,0,5.2,0,7.7c0,2.7,2,4.7,4.7,4.7c8.3,0,16.7,0,25,0C34.9,75.3,35.1,75.3,35.5,75.3z"/>
			<path class="st0" d="M58.1,18.9c-2.4,2.3-4.8,4.7-7.1,7c-3.9,3.8-7.7,7.7-11.6,11.6c-1.5,1.5-2.9,2.9-4.4,4.4
				c-0.2,0.2-0.4,0.3-0.7,0.4c-4.7,1.2-9.3,2.5-14,3.7c-0.1,0-0.1,0-0.3,0c0.8-3.1,1.7-6.3,2.5-9.4c0.4-1.5,0.7-2.9,1.2-4.4
				c0.2-0.5,0.5-1.1,0.8-1.5C31.7,23.5,38.9,16.4,46,9.2c0.4-0.4,0.8-0.8,1.2-1.2C50.9,11.7,54.4,15.2,58.1,18.9z M51.8,17.3
				c-0.5,0.4-1,0.7-1.3,1.1c-4.6,4.6-9.2,9.2-13.8,13.7c-1.7,1.7-3.3,3.3-5,5c-0.5,0.5-0.6,1.1-0.1,1.6c0.6,0.6,1.1,0.3,1.6-0.2
				c0.5-0.5,1-0.9,1.4-1.4c4.7-4.7,9.5-9.5,14.2-14.2c1.2-1.2,2.4-2.4,3.5-3.6c0.2-0.3,0.3-0.8,0.3-1.2
				C52.6,17.8,52.1,17.6,51.8,17.3z M48.7,14.3c-0.3-0.3-0.4-0.7-0.7-0.9c-0.3-0.1-0.7,0-1,0c-0.2,0.1-0.3,0.3-0.5,0.4
				c-3.8,3.8-7.6,7.5-11.4,11.3c-2.5,2.5-5,5-7.5,7.5c-0.5,0.5-1,1.2-0.3,1.8c0.6,0.6,1.2,0.2,1.7-0.3c2.7-2.7,5.4-5.4,8.1-8.1
				c3.6-3.6,7.2-7.2,10.8-10.8C48.3,15.1,48.5,14.7,48.7,14.3z"/>
			<path class="st0" d="M50.1,5.6c1.5-1.6,3-3.4,4.7-4.9c1.3-1.2,3.6-0.8,5.1,0.7c1.7,1.6,3.3,3.2,4.9,4.9c1.7,1.8,1.6,4.3-0.1,6.1
				c-1.3,1.4-2.6,2.8-3.9,4.1C57.1,12.6,53.5,9.1,50.1,5.6z"/>
			<path class="st0" d="M26.5,52.8c-5.4,0-10.9,0-16.3,0c-0.5,0-1.1-0.4-1.4-0.8c-0.4-0.8,0.2-1.5,1.2-1.5c2.5,0,5,0,7.5,0
				c8.4,0,16.8,0,25.2,0c0.3,0,0.6-0.1,0.8,0c0.4,0.3,0.9,0.7,0.9,1c0,0.4-0.5,0.8-0.9,1.2c-0.2,0.1-0.6,0-0.9,0
				C37.3,52.8,31.9,52.8,26.5,52.8z"/>
			<path class="st0" d="M26.7,57.4c5.3,0,10.6,0,16,0c0.3,0,0.6,0,0.9,0c0.7,0.1,1.1,0.5,1,1.1c-0.1,0.4-0.5,0.9-0.9,1.1
				c-0.4,0.2-0.9,0.1-1.3,0.1c-10.4,0-20.8,0-31.2,0c-0.4,0-0.9-0.1-1.3-0.1c-0.7-0.1-1-0.6-0.9-1.1c0.1-0.4,0.6-0.9,1-0.9
				c1.1-0.1,2.3-0.1,3.4-0.1C17.7,57.4,22.2,57.4,26.7,57.4C26.7,57.4,26.7,57.4,26.7,57.4z"/>
			<path class="st0" d="M20.1,66.6c-3.4,0-6.7,0-10.1,0c-0.8,0-1.3-0.2-1.3-1.1c0-0.9,0.3-1.2,1.4-1.2c6.7,0,13.4,0,20.1,0
				c0.5,0,1.1-0.1,1.4,0.6c0.3,0.9-0.1,1.6-1.1,1.6C27,66.6,23.6,66.6,20.1,66.6C20.1,66.6,20.1,66.6,20.1,66.6z"/>
			<path class="st0" d="M27.6,23.2c-0.6,0.6-1.2,1.1-1.9,1.7c-0.2,0.2-0.6,0.3-0.9,0.3c-4.9,0-9.9,0-14.8,0c-0.8,0-1.3-0.3-1.4-1
				c-0.1-0.7,0.4-1.2,1.1-1.2c5.9,0,11.7,0,17.6,0C27.5,23,27.6,23.1,27.6,23.2z"/>
			<path class="st0" d="M20.9,29.8c-0.2,0.8-0.4,1.5-0.6,2.3c-2.5,0-5.1,0-7.6,0c-0.9,0-1.9,0-2.8,0c-0.8,0-1.2-0.4-1.2-1.1
				c0-0.7,0.4-1.2,1.1-1.2C13.5,29.8,17.2,29.8,20.9,29.8z"/>
			<path class="st0" d="M19,36.7c0,0.2,0,0.3,0,0.3c-0.4,2-0.4,2-2.4,2c-2,0-4.1,0-6.1,0c-0.3,0-0.7,0.1-0.9-0.1
				c-0.4-0.3-0.9-0.7-1-1.1c-0.1-0.6,0.4-1.1,1.1-1.1C12.9,36.7,15.9,36.7,19,36.7z"/>
			<path class="st0" d="M17.2,43.6c-0.2,0.8-0.4,1.5-0.6,2.2c-2.3,0-4.6,0-6.8,0c-0.8,0-1.2-0.6-1.1-1.2c0-0.4,0.6-1,1-1
				C12.2,43.6,14.6,43.6,17.2,43.6z"/>
			<path class="st0" d="M35.8,45.8c0.1-0.2,0.1-0.2,0.1-0.3c1.1-1.6,2.6-2.3,4.6-2c0.9,0.1,1.7,0,2.6,0c0.7,0,1.3,0.3,1.3,1.1
				c0,0.8-0.5,1.1-1.3,1.1C40.7,45.8,38.3,45.8,35.8,45.8z"/>
		</g>
	</g>
</g>
<g id="i7IpKK_2_">
	<g>
		<path class="st0" d="M-0.2,176.7c0-3.1,0.8-6,2.1-8.7c1.3-2.7,3.1-5.1,5.4-7.1c3.6-3.3,7.8-5.4,12.5-6.5c0.3-0.1,0.4-0.2,0.4-0.5
			c0-0.7,0-1.5,0-2.2c0-0.1-0.1-0.3-0.2-0.4c-2.1-1.7-3.8-3.8-5.2-6.1c-1.3-2.2-2.3-4.5-2.9-7c-0.1-0.2-0.1-0.3-0.4-0.4
			c-0.5-0.2-0.9-0.6-1.3-1c-0.9-1.1-1.3-2.4-1.5-3.7c-0.2-1-0.2-2,0.1-3c0.2-0.7,0.5-1.4,1.3-1.6c0.3-0.1,0.6-0.1,0.9-0.1
			c0-0.1,0-0.2,0-0.3c0-0.8,0-1.6,0-2.5c0-3.1,0-6.3,0-9.4c0-0.8,0-1.6,0-2.4c0-0.7,0.3-1.2,0.8-1.5c0.9-0.6,2-1,3.1-1.3
			c2.5-0.7,5.1-1.2,7.7-1.3c1.7-0.1,3.4-0.2,5.1-0.2c1.9,0,3.8,0.3,5.7,0.6c2.1,0.4,4.3,0.8,6.3,1.5c0.9,0.3,1.7,0.7,2.5,1
			c0.4,0.2,0.7,0.5,0.6,1.1c0,2,0,3.9,0,5.9c0,1.2,0,2.3,0,3.5c0,0.6,0.2,1.3,0.2,1.9c0.1,1,0.1,2.1,0.2,3.1c0,0.1,0,0.1,0,0.2
			c1.2,0.1,1.7,0.8,1.9,1.9c0.4,2.4,0,4.7-1.6,6.7c-0.3,0.4-0.7,0.6-1.1,0.9c-0.1,0.1-0.2,0.3-0.2,0.4c-0.5,1.6-0.9,3.1-1.4,4.7
			c-0.6,1.8-1.5,3.5-2.6,5.1c-0.5,0.8-1.2,1.5-1.8,2.3c-0.1,0.1-0.2,0.2-0.2,0.3c0,1.4,0,2.7,0,4.1c0,0,0,0.1,0.1,0
			c1.5,0.6,3,1.2,4.4,1.9c2.9,1.4,5.5,3.3,7.7,5.7c2.5,2.6,4.2,5.7,5.2,9.2c0.5,1.7,0.8,3.4,0.8,5.2C36.2,176.7,18,176.7-0.2,176.7z
			 M16.2,125.6c0,0.1,0,0.1,0,0.2c-0.2,1.2-0.4,2.4-0.7,3.6c-0.3,1.2-0.9,2.2-1.8,3c-0.6,0.5-1.2,0.7-2,0.7c-0.3,0-0.4-0.1-0.4-0.4
			c0-0.8-0.1-1.6-0.1-2.4c0-0.3-0.2-0.6-0.4-0.8c-0.3-0.2-0.6-0.1-0.8,0.2c-0.1,0.3-0.2,0.5-0.3,0.8c-0.2,0.9-0.1,1.8,0.1,2.6
			c0.2,1.3,0.7,2.4,1.7,3.3c0.2,0.2,0.4,0.4,0.7,0.3c0.3-0.1,0.4,0.1,0.5,0.3c0.2,0.8,0.4,1.6,0.7,2.3c0.7,2.2,1.7,4.2,3,6.1
			c0.7,1.1,1.5,2,2.4,3c1.7,1.7,3.5,3.2,5.7,4.2c1.4,0.6,2.9,0.9,4.4,0.7c2.2-0.3,4.1-1.4,5.7-2.8c2-1.8,3.4-4,4.5-6.3
			c1-2.2,1.7-4.6,2.2-7c0.1-0.3,0.1-0.4,0.4-0.4c0.1,0,0.3-0.1,0.4-0.1c0.3-0.2,0.5-0.5,0.8-0.8c0.8-1,1.1-2.2,1.3-3.4
			c0.1-0.9,0.1-1.8-0.2-2.6c-0.1-0.3-0.3-0.5-0.6-0.4c-0.3,0.1-0.6,0.4-0.6,0.7c0,0.9,0,1.7,0,2.6c0,0.2-0.1,0.3-0.3,0.4
			c-0.5,0.1-0.9,0-1.3-0.3c-0.6-0.5-0.9-1.3-1-2c-0.2-0.9-0.3-1.8-0.6-2.7c-0.6-1.8-1.6-3.4-2.8-5c-0.4-0.6-0.8-1-1.6-1
			c-0.1,0-0.3,0-0.4,0.1c-1,0.8-2.1,1.5-3.2,2c-2.7,1.3-5.6,1.9-8.6,2C20.6,126.2,18.4,126,16.2,125.6z M21.2,152.4
			c0,1.1,0,2.1,0,3.1c0,0.1,0,0.2,0.1,0.2c1,1.8,2.2,3.3,4,4.3c1.2,0.7,2.4,1,3.8,0.8c1.4-0.2,2.5-0.9,3.6-1.8
			c1-0.8,1.7-1.9,2.4-2.9c0.1-0.1,0.1-0.3,0.1-0.4c0-1.1,0-2.2,0-3.3c0-0.3,0-0.5,0-0.8c-0.1,0.1-0.1,0.1-0.2,0.1
			c-0.1,0.1-0.2,0.1-0.2,0.2c-1.3,1.1-2.8,2-4.5,2.5c-1.1,0.3-2.3,0.5-3.5,0.3c-1.7-0.3-3.2-0.9-4.7-1.7
			C21.8,152.7,21.5,152.6,21.2,152.4z"/>
		<path class="st0" d="M50.2,110.4c-2.2,0.9-4.2,1.8-6.4,2.8c0-0.2,0-0.3,0-0.5c0.1-0.5-0.2-0.8-0.6-1c-0.8-0.4-1.5-0.7-2.3-1
			c-2.6-0.9-5.3-1.5-8-1.9c-2.1-0.3-4.3-0.6-6.5-0.6c-1.3,0-2.6,0-3.9,0.2c-1.9,0.2-3.8,0.5-5.7,0.8c-1.8,0.3-3.5,0.7-5.2,1.5
			c-0.5,0.2-1,0.5-1.4,0.8c-0.4,0.3-0.6,0.7-0.5,1.2c0,0.2,0,0.3,0,0.6c-2.1-0.9-4.2-1.8-6.4-2.8c0.7-0.3,1.4-0.5,2-0.7
			c2-0.7,4.1-1.4,6.1-2.1c3-1.1,6.1-2.1,9.1-3.2c2-0.7,3.9-1.4,5.9-2.1c0.2-0.1,0.5-0.1,0.7,0c4.1,1.4,8.1,2.8,12.1,4.3
			c3.5,1.2,7,2.5,10.5,3.7C49.9,110.3,50,110.4,50.2,110.4z"/>
		<path class="st0" d="M2.6,109.4c0-0.8,0-1.5,0-2.3c0-0.1,0.1-0.2,0.3-0.3c1-0.4,2.1-0.8,3.1-1.1c1.6-0.6,3.2-1.2,4.8-1.8
			c1.8-0.7,3.5-1.3,5.3-2c2.9-1.1,5.8-2.2,8.7-3.2c0.5-0.2,1.1-0.4,1.7-0.6c0,0.9,0,1.8,0,2.7c0,0.1-0.1,0.2-0.2,0.2
			c-1.2,0.4-2.4,0.8-3.6,1.3c-3.3,1.2-6.6,2.3-10,3.5c-2.8,1-5.6,2-8.4,3C3.7,109,3.2,109.2,2.6,109.4z"/>
		<path class="st0" d="M27.5,98.1c0.9,0.3,1.8,0.7,2.7,1c2.2,0.8,4.5,1.7,6.7,2.5c2.5,0.9,5.1,1.9,7.6,2.8c2.2,0.8,4.4,1.6,6.6,2.4
			c0.2,0.1,0.3,0.2,0.3,0.4c0,0.7,0,1.4,0,2.1c-0.1,0-0.2,0-0.3-0.1c-3.1-1.1-6.1-2.2-9.2-3.3c-4.7-1.6-9.3-3.3-14-4.9
			c-0.2-0.1-0.3-0.2-0.3-0.4C27.5,99.8,27.5,99,27.5,98.1z"/>
		<path class="st0" d="M46.3,125.2c0.3-1.7,0.6-3.3,0.9-4.9c0,0,0,0-0.1,0c-0.6,1.6-1.1,3.1-1.7,4.8c-0.4-0.1-0.7-0.3-1.1-0.4
			c0.8-2.2,1.6-4.4,2.5-6.7c0.2,0.8,0.7,1.3,1.5,1.3c0.7,0,1-0.4,1.4-1.3c0.8,2.2,1.6,4.4,2.4,6.6C50.3,125.4,48.3,125.6,46.3,125.2
			z"/>
		<path class="st0" d="M49.1,116.7c-0.7-0.2-0.7-0.4-1.7,0c0-1.4,0-2.8,0-4.2c0.5-0.2,1.1-0.5,1.7-0.7
			C49.1,113.4,49.1,115,49.1,116.7z"/>
		<path class="st0" d="M48.3,118.7c-0.5,0-0.9-0.4-0.9-0.9c0-0.5,0.4-0.8,0.9-0.9c0.5,0,0.9,0.3,0.9,0.9
			C49.2,118.3,48.8,118.7,48.3,118.7z"/>
	</g>
</g>
<g>
	<path class="st0" d="M64.8,222.5c-0.3-2.3-1.3-3.9-3.4-4.9c-1.7-0.8-3.6-1-5.4-1.1c-4.5-0.3-8.9-1.4-13.1-3.2c-3-1.3-5.8-3-8.6-4.9
		c-1.6-1.1-3.4-2.1-5.4-2.1c-1.9,0-3.5,0.7-5.1,1.7c-2.7,1.7-5.5,3.4-8.4,4.7c-5.3,2.4-10.9,3.7-16.7,4.1c-3.1,0.2-5.3,2-6,5
		c-0.2,0.9-0.3,1.7-0.3,2.6c-0.2,8,0.2,16,2,23.9c1.5,6.7,3.8,13,7.4,18.9c5.3,8.6,12.5,15.3,21.3,20.3c2.7,1.6,5.6,2.2,8.6,1
		c1.7-0.7,3.3-1.7,4.8-2.8c8.7-6.1,15.3-14,20.1-23.4c3.5-6.7,5.7-13.8,7.1-21.2c0.8-4.4,1.2-8.8,1.3-13.2
		C64.9,226.1,65,224.3,64.8,222.5z M55.1,247.4c-2,7.2-5.2,13.8-9.6,19.8c-4.1,5.5-9.1,10.1-14.8,13.8c-1.4,0.9-2.8,1-4.2,0.2
		c-4.9-2.7-9.3-6-13.1-10.1c-5-5.4-8.6-11.6-10.9-18.6c-1.6-4.9-2.6-10-3.1-15.1c-0.3-2.7-0.4-5.5-0.4-8.2c0-1.3,0-2.6,0-3.9
		c0-1.1,0.4-1.5,1.5-1.6c3.3-0.4,6.6-1,9.8-1.8c5.7-1.4,10.9-3.9,15.8-7.1c0.6-0.4,1.3-0.8,1.9-1.3c0.6-0.4,1-0.3,1.6,0.1
		c4.5,3.4,9.5,5.9,14.9,7.7c4.1,1.3,8.4,2.1,12.7,2.5c0.7,0.1,0.9,0.3,0.9,1C58.3,232.5,57.2,240,55.1,247.4z"/>
	<path class="st0" d="M51.5,228.1c-1.9-0.2-3.8-0.4-5.7-0.8c-5.8-1.2-11.1-3.5-15.8-7c-1-0.8-1.5-0.8-2.7,0.1
		c-3,2.1-6.2,3.8-9.6,5.1c-3.8,1.4-7.9,2.1-11.9,2.6c-1,0.1-1.4,0.6-1.4,1.5c0,1.2,0,2.4,0,3.6c-0.1,4.1,0.3,8.2,1.1,12.2
		c0.9,4.8,2.4,9.4,4.8,13.7c3.7,6.8,9.1,12,15.8,15.8c1.8,1,3.3,1,5-0.2c6.4-4.3,11.6-9.7,15.2-16.5c4.8-9,6.7-18.6,6.7-28.8
		C52.9,228.6,52.4,228.2,51.5,228.1z M43.7,241.4c-1.6,1.5-3.1,3.1-4.6,4.6c-1.8,1.9-3.7,3.7-5.5,5.5c-2.6,2.6-5.2,5.2-7.8,7.8
		c-0.9,0.9-1.6,0.9-2.5,0c-2.6-2.6-5.2-5.2-7.8-7.9c-0.6-0.6-1.2-1.2-1.8-1.8c-0.8-0.8-0.8-1.4,0-2.2c0.7-0.7,1.3-1.3,2-2
		c0.1-0.1,0.1-0.1,0.2-0.2c0.2-0.4,0.6-0.7,1-1.1c0.9-0.8,1.5-0.9,2.4,0c1.5,1.4,2.9,2.8,4.3,4.3c1,1,1,1,2,0
		c4.2-4.2,8.4-8.4,12.6-12.6c0.7-0.7,1.4-0.7,2.1,0c1.2,1.2,2.4,2.4,3.6,3.7C44.4,240.1,44.4,240.7,43.7,241.4z"/>
</g>
</svg>
