<?xml version="1.0" encoding="utf-8"?>
<!-- Generator: Adobe Illustrator 22.0.1, SVG Export Plug-In . SVG Version: 6.00 Build 0)  -->
<svg version="1.1" id="Capa_1" xmlns="http://www.w3.org/2000/svg" xmlns:xlink="http://www.w3.org/1999/xlink" x="0px" y="0px"
	 viewBox="0 0 72.6 82.9" style="enable-background:new 0 0 72.6 82.9;" xml:space="preserve">
<style type="text/css">
	.st0{fill:#CCAB3B;}
</style>
<g>
	<path class="st0" d="M72.5,16.2c-0.3-2.3-1.3-3.9-3.4-4.9c-1.7-0.8-3.6-1-5.4-1.1C59.1,9.8,54.8,8.7,50.6,7c-3-1.3-5.8-3-8.6-4.9
		C40.4,0.9,38.7,0,36.6,0c-1.9,0-3.5,0.7-5.1,1.7c-2.7,1.7-5.5,3.4-8.4,4.7c-5.3,2.4-10.9,3.7-16.7,4.1c-3.1,0.2-5.3,2-6,5
		c-0.2,0.9-0.3,1.7-0.3,2.6c-0.2,8,0.2,16,2,23.9c1.5,6.7,3.8,13,7.4,18.9c5.3,8.6,12.5,15.3,21.3,20.3c2.7,1.6,5.6,2.2,8.6,1
		c1.7-0.7,3.3-1.7,4.8-2.8c8.7-6.1,15.3-14,20.1-23.4c3.5-6.7,5.7-13.8,7.1-21.2c0.8-4.4,1.2-8.8,1.3-13.2
		C72.6,19.8,72.7,18,72.5,16.2z M62.9,41.1c-2,7.2-5.2,13.8-9.6,19.8c-4.1,5.5-9.1,10.1-14.8,13.8c-1.4,0.9-2.8,1-4.2,0.2
		C29.4,72.3,25,69,21.2,65c-5-5.4-8.6-11.6-10.9-18.6c-1.6-4.9-2.6-10-3.1-15.1c-0.3-2.7-0.4-5.5-0.4-8.2c0-1.3,0-2.6,0-3.9
		c0-1.1,0.4-1.5,1.5-1.6c3.3-0.4,6.6-1,9.8-1.8c5.7-1.4,10.9-3.9,15.8-7.1c0.6-0.4,1.3-0.8,1.9-1.3c0.6-0.4,1-0.3,1.6,0.1
		c4.5,3.4,9.5,5.9,14.9,7.7c4.1,1.3,8.4,2.1,12.7,2.5c0.7,0.1,0.9,0.3,0.9,1C66,26.2,65,33.7,62.9,41.1z"/>
	<path class="st0" d="M59.2,21.8c-1.9-0.2-3.8-0.4-5.7-0.8c-5.8-1.2-11.1-3.5-15.8-7c-1-0.8-1.5-0.8-2.7,0.1c-3,2.1-6.2,3.8-9.6,5.1
		c-3.8,1.4-7.9,2.1-11.9,2.6c-1,0.1-1.4,0.6-1.4,1.5c0,1.2,0,2.4,0,3.6c-0.1,4.1,0.3,8.2,1.1,12.2c0.9,4.8,2.4,9.4,4.8,13.7
		c3.7,6.8,9.1,12,15.8,15.8c1.8,1,3.3,1,5-0.2c6.4-4.3,11.6-9.7,15.2-16.5c4.8-9,6.7-18.6,6.7-28.8C60.6,22.3,60.1,21.9,59.2,21.8z
		 M51.4,35.1c-1.6,1.5-3.1,3.1-4.6,4.6c-1.8,1.9-3.7,3.7-5.5,5.5c-2.6,2.6-5.2,5.2-7.8,7.8c-0.9,0.9-1.6,0.9-2.5,0
		c-2.6-2.6-5.2-5.2-7.8-7.9c-0.6-0.6-1.2-1.2-1.8-1.8c-0.8-0.8-0.8-1.4,0-2.2c0.7-0.7,1.3-1.3,2-2c0.1-0.1,0.1-0.1,0.2-0.2
		c0.2-0.4,0.6-0.7,1-1.1c0.9-0.8,1.5-0.9,2.4,0c1.5,1.4,2.9,2.8,4.3,4.3c1,1,1,1,2,0c4.2-4.2,8.4-8.4,12.6-12.6
		c0.7-0.7,1.4-0.7,2.1,0c1.2,1.2,2.4,2.4,3.6,3.7C52.2,33.8,52.1,34.5,51.4,35.1z"/>
</g>
</svg>
